<mxfile host="app.diagrams.net" modified="2024-06-21T06:17:24.989Z" agent="Mozilla/5.0 (Windows NT 10.0; Win64; x64) AppleWebKit/537.36 (KHTML, like Gecko) Chrome/126.0.0.0 Safari/537.36" version="24.4.14" etag="5llKlxG8H9FSTICdwG1N" type="github">
  <diagram name="第 1 页" id="10L-BLvUZfJ4e7z3wUuA">
    <mxGraphModel>
      <root>
        <mxCell id="0" />
        <mxCell id="1" parent="0" />
      </root>
    </mxGraphModel>
  </diagram>
</mxfile>
